<svg width="300" height="300" viewBox="0 0 300 300" fill="none" xmlns="http://www.w3.org/2000/svg">
<path d="M300 229.441H0V229.591H300V229.441Z" fill="#EBEBEB"/>
<path d="M269.941 239.098H250.067V239.248H269.941V239.098Z" fill="#EBEBEB"/>
<path d="M198.732 240.727H193.517V240.877H198.732V240.727Z" fill="#EBEBEB"/>
<path d="M249.466 233.527H237.951V233.677H249.466V233.527Z" fill="#EBEBEB"/>
<path d="M57.3914 234.535H31.4756V234.685H57.3914V234.535Z" fill="#EBEBEB"/>
<path d="M66.5332 234.535H62.7334V234.685H66.5332V234.535Z" fill="#EBEBEB"/>
<path d="M135.088 237.066H78.8828V237.216H135.088V237.066Z" fill="#EBEBEB"/>
<path d="M142.208 202.681H26.3486C24.4604 202.681 22.9238 201.145 22.9238 199.257V36.3975C22.9238 34.5093 24.4604 32.9727 26.3486 32.9727H142.208C144.096 32.9727 145.632 34.5093 145.632 36.3975V199.257C145.632 201.145 144.096 202.681 142.208 202.681ZM26.3486 33.1233C24.5426 33.1233 23.0738 34.5921 23.0738 36.3981V199.257C23.0738 201.063 24.5426 202.532 26.3486 202.532H142.208C144.013 202.532 145.482 201.063 145.482 199.257V36.3975C145.482 34.5921 144.013 33.1227 142.208 33.1227L26.3486 33.1233Z" fill="#EBEBEB"/>
<path d="M271.986 202.681H156.127C154.239 202.681 152.703 201.145 152.703 199.257V36.3975C152.703 34.5093 154.24 32.9727 156.127 32.9727H271.986C273.875 32.9727 275.411 34.5093 275.411 36.3975V199.257C275.412 201.145 273.875 202.681 271.986 202.681ZM156.127 33.1233C154.322 33.1233 152.853 34.5921 152.853 36.3981V199.257C152.853 201.063 154.322 202.532 156.127 202.532H271.986C273.792 202.532 275.261 201.063 275.261 199.257V36.3975C275.261 34.5921 273.792 33.1227 271.986 33.1227L156.127 33.1233Z" fill="#EBEBEB"/>
<path d="M173.814 104.437L256.482 104.438V50.3013L173.814 50.3013V104.437Z" fill="#E6E6E6"/>
<path d="M171.292 104.437L255.304 104.438V50.3013L171.292 50.3013V104.437Z" fill="#F0F0F0"/>
<path d="M173.814 115.062L256.482 115.062V104.438L173.814 104.438V115.062Z" fill="#E6E6E6"/>
<path d="M167.09 115.062L251.102 115.062V104.438L167.09 104.438V115.062Z" fill="#F0F0F0"/>
<path d="M251.772 100.906V53.832L174.823 53.832V100.906L251.772 100.906Z" fill="#FAFAFA"/>
<path d="M234.42 100.906L224.592 53.832H209.256L219.084 100.906H234.42Z" fill="white"/>
<path d="M250.137 97.3917C250.277 97.3917 250.39 97.2789 250.39 97.1397V56.1309C250.39 55.9917 250.277 55.8789 250.137 55.8789C249.998 55.8789 249.885 55.9917 249.885 56.1309V97.1397C249.885 97.2789 249.998 97.3917 250.137 97.3917Z" fill="#F0F0F0"/>
<path d="M215.79 100.906L205.962 53.832H199.982L209.811 100.906H215.79Z" fill="white"/>
<path d="M175.271 100.906V53.832H174.823V100.906H175.271Z" fill="#E6E6E6"/>
<path opacity="0.6" d="M170.457 59.1547H253.126L253.45 55.2031H170.782L170.457 59.1547Z" fill="#EBEBEB"/>
<path opacity="0.6" d="M170.457 65.6391H253.126L253.45 61.6875H170.782L170.457 65.6391Z" fill="#EBEBEB"/>
<path opacity="0.6" d="M170.457 72.1196H253.126L253.45 68.168H170.782L170.457 72.1196Z" fill="#EBEBEB"/>
<path opacity="0.6" d="M170.457 78.6H253.126L253.45 74.6484H170.782L170.457 78.6Z" fill="#EBEBEB"/>
<path opacity="0.6" d="M170.457 85.0805H253.126L253.45 81.1289H170.782L170.457 85.0805Z" fill="#EBEBEB"/>
<path opacity="0.6" d="M170.457 91.561H253.126L253.45 87.6094H170.782L170.457 91.561Z" fill="#EBEBEB"/>
<path d="M244.613 190.07H227.279V193.488H244.613V190.07Z" fill="#E6E6E6"/>
<path d="M194.584 229.441H197.784V150.802H194.584V229.441Z" fill="#E6E6E6"/>
<path d="M183.501 193.488H227.278V190.071H183.501V193.488Z" fill="#F5F5F5"/>
<path d="M244.613 208.77H227.279V212.187H244.613V208.77Z" fill="#E6E6E6"/>
<path d="M183.501 212.188H227.278V208.77H183.501V212.188Z" fill="#F5F5F5"/>
<path d="M244.613 152.668H227.279V156.086H244.613V152.668Z" fill="#E6E6E6"/>
<path d="M183.501 156.086H227.278V152.668H183.501V156.086Z" fill="#F5F5F5"/>
<path d="M244.613 171.371H227.279V174.789H244.613V171.371Z" fill="#E6E6E6"/>
<path d="M183.501 174.785H227.278V171.368H183.501V174.785Z" fill="#F5F5F5"/>
<path d="M238.363 229.441H241.562V150.802H238.363V229.441Z" fill="#E6E6E6"/>
<path d="M224.079 229.441H227.279V150.802H224.079V229.441Z" fill="#F5F5F5"/>
<path d="M183.501 229.441H186.701V150.802H183.501V229.441Z" fill="#F5F5F5"/>
<path d="M39.2239 229.441H71.9707L71.9707 165.906H39.2239L39.2239 229.441Z" fill="#E6E6E6"/>
<path d="M47.968 229.443H39.2236V220.672H57.136L47.968 229.443Z" fill="#FAFAFA"/>
<path d="M128.509 229.441H161.256V165.906H128.509V229.441Z" fill="#E6E6E6"/>
<path d="M39.2232 226.422H136.141V165.905H39.2232L39.2232 226.422Z" fill="#FAFAFA"/>
<path d="M127.397 229.443H136.142V220.672H118.229L127.397 229.443Z" fill="#FAFAFA"/>
<path d="M46.0072 203.602H129.357V188.457H46.0072V203.602Z" fill="#F0F0F0"/>
<path d="M46.0072 221.98H129.357V206.836H46.0072V221.98Z" fill="#F0F0F0"/>
<path d="M61.8501 190.076H113.515C115.031 190.076 116.26 188.846 116.26 187.329V187.145H59.1045V187.329C59.1045 188.846 60.3339 190.076 61.8501 190.076Z" fill="#FAFAFA"/>
<path d="M46.0072 185.219H129.357V170.074H46.0072V185.219Z" fill="#F0F0F0"/>
<path d="M61.8501 171.697H113.515C115.031 171.697 116.26 170.467 116.26 168.95V168.766H59.1045V168.95C59.1045 170.467 60.3339 171.697 61.8501 171.697Z" fill="#FAFAFA"/>
<path d="M61.8501 208.458H113.515C115.031 208.458 116.26 207.228 116.26 205.712V205.527H59.1045V205.712C59.1045 207.228 60.3339 208.458 61.8501 208.458Z" fill="#FAFAFA"/>
<path d="M44.4408 104.437L127.109 104.438V50.3013L44.4408 50.3013V104.437Z" fill="#E6E6E6"/>
<path d="M41.9187 104.437L125.931 104.438V50.3013L41.9187 50.3013V104.437Z" fill="#F0F0F0"/>
<path d="M44.4408 115.062L127.109 115.062V104.438L44.4408 104.438V115.062Z" fill="#E6E6E6"/>
<path d="M37.7155 115.062L121.728 115.062V104.438L37.7155 104.438V115.062Z" fill="#F0F0F0"/>
<path d="M122.399 100.906L122.399 53.832L45.45 53.832L45.45 100.906L122.399 100.906Z" fill="#FAFAFA"/>
<path d="M105.047 100.906L95.2184 53.832H79.8818L89.7104 100.906H105.047Z" fill="white"/>
<path d="M120.764 97.3917C120.904 97.3917 121.016 97.2789 121.016 97.1397V56.1309C121.016 55.9917 120.904 55.8789 120.764 55.8789C120.625 55.8789 120.512 55.9917 120.512 56.1309V97.1397C120.512 97.2789 120.625 97.3917 120.764 97.3917Z" fill="#F0F0F0"/>
<path d="M86.416 100.906L76.5874 53.832H70.6084L80.437 100.906H86.416Z" fill="white"/>
<path d="M45.8984 100.906L45.8984 53.832H45.4502L45.4502 100.906H45.8984Z" fill="#E6E6E6"/>
<path opacity="0.6" d="M41.083 59.1547H123.752L124.077 55.2031H41.4082L41.083 59.1547Z" fill="#EBEBEB"/>
<path opacity="0.6" d="M41.083 61.3858H123.752L124.077 57.4336H41.4082L41.083 61.3858Z" fill="#EBEBEB"/>
<path opacity="0.6" d="M41.083 63.6157H123.752L124.077 59.6641H41.4082L41.083 63.6157Z" fill="#EBEBEB"/>
<path opacity="0.6" d="M41.083 65.8467H123.752L124.077 61.8945H41.4082L41.083 65.8467Z" fill="#EBEBEB"/>
<path opacity="0.6" d="M41.083 68.0727H123.752L124.077 64.1211H41.4082L41.083 68.0727Z" fill="#EBEBEB"/>
<path opacity="0.6" d="M41.083 70.3032H123.752L124.077 66.3516H41.4082L41.083 70.3032Z" fill="#EBEBEB"/>
<path d="M57.608 163.965H60.4658L60.4658 132.11H57.608L57.608 163.965Z" fill="#F5F5F5"/>
<path d="M57.9762 163.941H58.7832L58.7832 132.086H57.9762L57.9762 163.941Z" fill="#FAFAFA"/>
<path d="M59.1213 163.941H59.4375L59.4375 132.086H59.1213L59.1213 163.941Z" fill="#FAFAFA"/>
<path d="M48.458 165.904H69.6164C69.6164 164.432 68.423 163.238 66.9506 163.238H51.1238C49.6514 163.238 48.458 164.432 48.458 165.904Z" fill="#F0F0F0"/>
<path d="M53.9011 151.885C54.3535 151.885 54.7231 151.515 54.7231 151.063V130.177C54.7231 129.726 54.3529 129.355 53.9011 129.355C53.4487 129.355 53.0791 129.726 53.0791 130.177V151.063C53.0791 151.516 53.4487 151.885 53.9011 151.885Z" fill="#F0F0F0"/>
<path d="M46.2441 139.68H71.8293L68.8863 121.801H49.1871L46.2441 139.68Z" fill="#E0E0E0"/>
<path d="M150 256.537C214.25 256.537 266.334 253.495 266.334 249.743C266.334 245.991 214.25 242.949 150 242.949C85.7512 242.949 33.667 245.991 33.667 249.743C33.667 253.495 85.7512 256.537 150 256.537Z" fill="#F5F5F5"/>
<path d="M62.4647 121.418L61.8662 121.461L62.6627 132.525L63.2612 132.482L62.4647 121.418Z" fill="#07593D"/>
<path d="M63.6834 138.191L63.085 138.234L63.385 142.397L63.9834 142.353L63.6834 138.191Z" fill="#07593D"/>
<path d="M202.627 189.098H74.1318C71.2254 189.098 68.6766 186.72 68.4672 183.814L62.1534 96.1358C61.944 93.2294 64.1508 90.8516 67.0572 90.8516H195.552C198.458 90.8516 201.007 93.2294 201.217 96.1358L207.53 183.814C207.739 186.72 205.533 189.098 202.627 189.098Z" fill="#07593D"/>
<path d="M203.119 189.098H74.624C71.7176 189.098 69.1688 186.72 68.9594 183.814L62.6456 96.1358C62.4362 93.2294 64.643 90.8516 67.5494 90.8516H196.044C198.951 90.8516 201.499 93.2294 201.709 96.1358L208.023 183.814C208.231 186.72 206.025 189.098 203.119 189.098Z" fill="#07593D"/>
<path opacity="0.5" d="M203.119 189.098H74.624C71.7176 189.098 69.1688 186.72 68.9594 183.814L62.6456 96.1358C62.4362 93.2294 64.643 90.8516 67.5494 90.8516H196.044C198.951 90.8516 201.499 93.2294 201.709 96.1358L208.023 183.814C208.231 186.72 206.025 189.098 203.119 189.098Z" fill="white"/>
<path d="M196.235 93.4922H67.74C67.5948 93.4922 67.4514 93.4982 67.3098 93.5096C64.0254 93.7802 64.6962 98.7764 68.0112 98.7764H196.725C200.04 98.7764 199.991 93.7802 196.668 93.5096C196.525 93.4982 196.38 93.4922 196.235 93.4922Z" fill="#07593D"/>
<path d="M71.0861 96.1372C71.1341 96.8062 70.6313 97.3486 69.9617 97.3486C69.2927 97.3486 68.7113 96.8062 68.6633 96.1372C68.6153 95.4682 69.1181 94.9258 69.7877 94.9258C70.4573 94.9258 71.0381 95.4676 71.0861 96.1372Z" fill="#FAFAFA"/>
<path d="M75.2072 96.1372C75.2552 96.8062 74.7524 97.3486 74.0828 97.3486C73.4138 97.3486 72.8324 96.8062 72.7844 96.1372C72.7364 95.4682 73.2392 94.9258 73.9088 94.9258C74.5778 94.9258 75.1592 95.4676 75.2072 96.1372Z" fill="#FAFAFA"/>
<path d="M79.3279 96.1372C79.3759 96.8062 78.8725 97.3486 78.2035 97.3486C77.5345 97.3486 76.9531 96.8062 76.9045 96.1372C76.8565 95.4682 77.3599 94.9258 78.0289 94.9258C78.6979 94.9258 79.2793 95.4676 79.3279 96.1372Z" fill="#FAFAFA"/>
<path d="M199.713 180.349H76.7708C75.713 180.349 74.7932 179.491 74.717 178.434L69.5246 106.33C69.4484 105.272 70.2446 104.414 71.3024 104.414H194.244C195.302 104.414 196.222 105.271 196.298 106.33L201.49 178.434C201.567 179.491 200.77 180.349 199.713 180.349Z" fill="white"/>
<path d="M147.919 152.879L145.918 125.088L139.853 121.438H123.171L125.435 152.879H147.919Z" fill="white"/>
<path d="M147.919 153.172H125.435C125.282 153.172 125.156 153.054 125.145 152.902L122.881 121.46C122.875 121.379 122.903 121.3 122.958 121.241C123.013 121.181 123.09 121.148 123.171 121.148H139.853C139.906 121.148 139.958 121.163 140.003 121.19L146.068 124.84C146.149 124.889 146.201 124.974 146.207 125.068L148.208 152.86C148.214 152.94 148.186 153.02 148.131 153.079C148.076 153.138 147.999 153.172 147.919 153.172ZM125.705 152.59H147.606L145.638 125.261L139.772 121.73H123.483L125.705 152.59Z" fill="#07593D"/>
<path d="M145.918 125.088L139.854 121.438L142.08 126.273L145.918 125.088Z" fill="#EBEBEB"/>
<path d="M142.08 126.565C141.969 126.565 141.864 126.501 141.816 126.396L139.589 121.561C139.536 121.445 139.564 121.308 139.659 121.222C139.754 121.137 139.894 121.125 140.003 121.19L146.067 124.84C146.166 124.899 146.22 125.011 146.206 125.125C146.192 125.239 146.113 125.334 146.003 125.367L142.166 126.553C142.137 126.561 142.109 126.565 142.08 126.565ZM140.513 122.175L142.238 125.922L145.211 125.003L140.513 122.175Z" fill="#07593D"/>
<path d="M132.582 135.606C132.632 136.308 132.105 136.876 131.403 136.876C130.701 136.876 130.092 136.308 130.041 135.606C129.991 134.905 130.518 134.336 131.22 134.336C131.921 134.336 132.531 134.905 132.582 135.606Z" fill="#07593D"/>
<path d="M140.824 135.606C140.874 136.308 140.347 136.876 139.645 136.876C138.943 136.876 138.334 136.308 138.283 135.606C138.232 134.905 138.76 134.336 139.462 134.336C140.164 134.337 140.773 134.905 140.824 135.606Z" fill="#07593D"/>
<path d="M143.149 143.845C142.997 143.845 142.87 143.728 142.859 143.575C142.712 141.532 139.509 139.871 135.719 139.871C133.208 139.871 130.954 140.617 129.835 141.819C129.338 142.354 129.108 142.93 129.151 143.533C129.163 143.693 129.042 143.832 128.882 143.844C128.721 143.854 128.582 143.734 128.571 143.574C128.516 142.815 128.806 142.071 129.409 141.423C130.634 140.106 133.051 139.289 135.719 139.289C139.876 139.289 143.267 141.153 143.439 143.532C143.45 143.692 143.33 143.832 143.17 143.843C143.162 143.845 143.155 143.845 143.149 143.845Z" fill="#07593D"/>
<path d="M127.9 133.032C127.83 133.032 127.759 133.007 127.702 132.955C127.585 132.846 127.578 132.662 127.687 132.544L128.961 131.171C129.07 131.053 129.255 131.047 129.372 131.156C129.49 131.265 129.496 131.449 129.388 131.567L128.114 132.939C128.056 133.001 127.978 133.032 127.9 133.032Z" fill="#07593D"/>
<path d="M142.551 133.032C142.48 133.032 142.409 133.007 142.352 132.954L140.881 131.582C140.763 131.472 140.757 131.288 140.866 131.171C140.975 131.053 141.16 131.047 141.277 131.156L142.749 132.529C142.867 132.638 142.873 132.822 142.763 132.94C142.706 133.001 142.629 133.032 142.551 133.032Z" fill="#07593D"/>
<path d="M121.354 159.094H122.71L124.667 161.694L124.48 159.094H125.848L126.187 163.794H124.818L122.872 161.213L123.058 163.794H121.692L121.354 159.094Z" fill="#07593D"/>
<path d="M126.801 161.445C126.746 160.678 126.916 160.081 127.314 159.653C127.71 159.226 128.29 159.012 129.053 159.012C129.835 159.012 130.453 159.222 130.906 159.642C131.36 160.062 131.614 160.65 131.668 161.406C131.708 161.955 131.648 162.406 131.488 162.758C131.329 163.109 131.082 163.383 130.746 163.578C130.411 163.774 129.982 163.872 129.461 163.872C128.931 163.872 128.486 163.787 128.127 163.619C127.767 163.45 127.467 163.182 127.224 162.817C126.982 162.452 126.841 161.995 126.801 161.445ZM128.254 161.452C128.288 161.927 128.401 162.267 128.592 162.474C128.783 162.682 129.03 162.785 129.334 162.785C129.646 162.785 129.88 162.684 130.036 162.48C130.193 162.278 130.252 161.913 130.214 161.387C130.182 160.945 130.069 160.622 129.876 160.418C129.683 160.214 129.433 160.112 129.128 160.112C128.835 160.112 128.608 160.215 128.445 160.422C128.283 160.631 128.22 160.973 128.254 161.452Z" fill="#07593D"/>
<path d="M134.491 159.094H136.649C137.074 159.094 137.422 159.151 137.692 159.267C137.962 159.382 138.191 159.547 138.377 159.763C138.564 159.979 138.706 160.23 138.803 160.517C138.901 160.803 138.961 161.107 138.985 161.427C139.021 161.929 138.992 162.319 138.897 162.596C138.803 162.873 138.661 163.105 138.471 163.291C138.281 163.479 138.073 163.603 137.844 163.665C137.532 163.75 137.246 163.793 136.988 163.793H134.83L134.491 159.094ZM136.02 160.158L136.205 162.726H136.561C136.864 162.726 137.077 162.693 137.201 162.625C137.324 162.558 137.416 162.441 137.477 162.273C137.537 162.105 137.554 161.833 137.527 161.457C137.491 160.959 137.386 160.618 137.21 160.434C137.034 160.251 136.758 160.159 136.382 160.159H136.02V160.158Z" fill="#07593D"/>
<path d="M142.469 163.018H140.82L140.647 163.794H139.164L140.592 159.094H142.176L144.28 163.794H142.759L142.469 163.018ZM142.094 162.002L141.454 160.312L141.062 162.002H142.094Z" fill="#07593D"/>
<path d="M143.622 159.094H148.036L148.12 160.254H146.639L146.894 163.794H145.442L145.187 160.254H143.706L143.622 159.094Z" fill="#07593D"/>
<path d="M151.419 163.018H149.77L149.597 163.794H148.114L149.542 159.094H151.126L153.23 163.794H151.709L151.419 163.018ZM151.045 162.002L150.404 160.312L150.013 162.002H151.045Z" fill="#07593D"/>
<path d="M212.212 103.848C212.748 103.579 213.387 103.232 213.978 102.907C214.58 102.576 215.179 102.231 215.768 101.873C216.944 101.149 218.129 100.434 219.253 99.6395C221.522 98.0765 223.648 96.3419 225.561 94.4477C225.812 94.2185 226.025 93.9641 226.256 93.7217L226.598 93.3545L226.77 93.1709L226.856 93.0791C226.878 93.0551 226.873 93.0599 226.862 93.0743L226.843 93.1037C226.758 93.2639 226.829 93.2153 226.862 93.0605C226.902 92.9117 226.935 92.6687 226.946 92.4059C226.985 91.3163 226.77 89.9429 226.509 88.6151C225.975 85.9241 225.166 83.1563 224.367 80.4443L226.698 79.4219C228.158 82.0295 229.375 84.6929 230.366 87.5807C230.837 89.0435 231.27 90.5123 231.397 92.3165C231.42 92.7761 231.431 93.2591 231.347 93.8225C231.259 94.3769 231.119 95.0405 230.613 95.7929L230.513 95.9315L230.436 96.0323L230.343 96.1451L230.159 96.3695L229.788 96.8195C229.538 97.1159 229.301 97.4285 229.035 97.7063C226.966 100.004 224.664 102.033 222.207 103.797C220.985 104.691 219.735 105.539 218.438 106.311C217.791 106.703 217.137 107.078 216.471 107.442C215.798 107.817 215.157 108.143 214.391 108.502L212.212 103.848Z" fill="#FFB573"/>
<path d="M206.876 244.907C207.341 244.907 207.848 244.811 208.203 244.727C208.249 244.716 208.284 244.679 208.293 244.631C208.301 244.584 208.281 244.537 208.241 244.511C208.069 244.398 206.543 243.413 205.958 243.678C205.866 243.72 205.75 243.812 205.721 244.013C205.683 244.279 205.75 244.491 205.919 244.645C206.133 244.841 206.49 244.907 206.876 244.907ZM207.866 244.557C206.991 244.731 206.333 244.701 206.079 244.469C205.971 244.371 205.931 244.232 205.957 244.046C205.971 243.945 206.018 243.912 206.056 243.895C206.364 243.756 207.244 244.181 207.866 244.557Z" fill="#07593D"/>
<path d="M208.175 244.729C208.196 244.729 208.217 244.723 208.235 244.712C208.272 244.691 208.295 244.652 208.295 244.609C208.295 244.548 208.288 243.101 207.742 242.617C207.596 242.489 207.427 242.435 207.238 242.458C206.939 242.494 206.859 242.682 206.837 242.79C206.723 243.356 207.637 244.441 208.117 244.712C208.135 244.723 208.155 244.729 208.175 244.729ZM207.32 242.691C207.418 242.691 207.505 242.725 207.584 242.795C207.91 243.084 208.022 243.896 208.049 244.378C207.571 243.997 207.002 243.182 207.071 242.837C207.082 242.78 207.115 242.713 207.266 242.695C207.284 242.692 207.302 242.691 207.32 242.691Z" fill="#07593D"/>
<path d="M207.734 88.8398C207.149 91.8218 205.917 97.862 208.004 99.8522C208.004 99.8522 207.188 102.877 201.647 102.877C195.554 102.877 198.735 99.8528 198.735 99.8528C202.061 99.0584 201.975 96.5912 201.396 94.274L207.734 88.8398Z" fill="#FFB573"/>
<path d="M197.57 101.052C196.614 101.182 197.427 98.7045 197.816 98.4477C198.714 97.8543 210.327 97.0143 210.251 98.4237C210.203 99.0303 209.918 100.214 209.41 100.616C208.902 101.018 205.919 99.8031 197.57 101.052Z" fill="#263238"/>
<path d="M199.462 100.219C198.702 100.476 198.774 97.9792 199.033 97.6786C199.632 96.9838 209.031 94.5688 209.31 95.935C209.418 96.5248 209.469 97.7032 209.147 98.161C208.825 98.6182 206.063 97.8616 199.462 100.219Z" fill="#263238"/>
<path d="M195.965 83.4627C195.892 83.4669 195.817 83.4375 195.767 83.3757C195.095 82.5537 194.221 82.6377 194.213 82.6389C194.08 82.6527 193.964 82.5585 193.951 82.4277C193.936 82.2969 194.031 82.1793 194.162 82.1655C194.208 82.1607 195.302 82.0545 196.136 83.0739C196.219 83.1759 196.204 83.3259 196.102 83.4087C196.062 83.4423 196.014 83.4597 195.965 83.4627Z" fill="#263238"/>
<path d="M194.803 86.3984C194.803 86.3984 194.29 88.2026 193.618 89.1146C194.2 89.5592 195.083 89.243 195.083 89.243L194.803 86.3984Z" fill="#FF5652"/>
<path d="M195.095 85.6693C195.135 86.0725 194.953 86.4205 194.69 86.4469C194.426 86.4727 194.18 86.1667 194.14 85.7635C194.101 85.3603 194.282 85.0123 194.546 84.9859C194.81 84.9601 195.056 85.2661 195.095 85.6693Z" fill="#263238"/>
<path d="M194.666 84.9967L193.669 84.8125C193.669 84.8125 194.241 85.5211 194.666 84.9967Z" fill="#263238"/>
<path d="M214.02 244.611H208.994L209.388 232.973H214.414L214.02 244.611Z" fill="#FFB573"/>
<path d="M208.596 244.027H214.242C214.448 244.027 214.614 244.17 214.643 244.371L215.286 248.838C215.353 249.301 214.955 249.739 214.481 249.732C212.512 249.698 211.563 249.582 209.081 249.582C207.553 249.582 205.321 249.741 203.212 249.741C201.149 249.741 200.99 247.654 201.869 247.466C205.807 246.619 206.429 245.451 207.756 244.336C207.995 244.135 208.296 244.027 208.596 244.027Z" fill="#263238"/>
<g opacity="0.2">
<path d="M214.415 232.977H209.387L209.187 238.976H214.215L214.415 232.977Z" fill="black"/>
</g>
<path d="M194.024 106.824C190.914 105.607 187.948 104.283 184.994 102.772C182.045 101.263 179.142 99.6556 176.352 97.5082C175.657 96.9616 174.97 96.364 174.298 95.6662C174.131 95.4862 173.964 95.3194 173.799 95.113C173.626 94.8958 173.496 94.768 173.272 94.4344C172.866 93.8512 172.552 93.0682 172.469 92.269C172.39 91.4692 172.534 90.7054 172.764 90.0964C172.993 89.4766 173.293 88.9708 173.608 88.5322C174.238 87.6538 174.937 87.0046 175.641 86.4202C177.047 85.2568 178.534 84.4108 180.023 83.62C180.767 83.2252 181.525 82.8694 182.293 82.5418C183.065 82.2088 183.818 81.8992 184.637 81.6172L185.702 83.929C183.085 85.5784 180.374 87.3916 178.381 89.4244C177.897 89.9278 177.473 90.4546 177.207 90.9184C176.921 91.3906 176.925 91.744 176.973 91.717C176.998 91.717 176.988 91.7062 177.058 91.7758L177.297 92.032C177.387 92.1394 177.513 92.2492 177.627 92.3596C178.098 92.7994 178.65 93.241 179.246 93.661C180.437 94.5088 181.749 95.302 183.106 96.043C184.459 96.7942 185.85 97.513 187.267 98.1952C190.095 99.5494 193.026 100.853 195.903 102.043L194.024 106.824Z" fill="#FFB573"/>
<path d="M187.181 82.2937L188.012 80.4913L184.234 79.1797C184.234 79.1797 183.058 82.7215 184.46 84.3559C185.654 84.1645 186.675 83.3917 187.181 82.2937Z" fill="#FFB573"/>
<path d="M188.012 76.5933L184.992 75.7227L184.234 79.1775L188.012 80.4897V76.5933Z" fill="#FFB573"/>
<path d="M227.009 80.6651L227.45 76.4531L223.557 77.3681C223.557 77.3681 223.5 81.3161 225.559 81.9455L227.009 80.6651Z" fill="#FFB573"/>
<path d="M225.574 73.5039L223.038 74.6883L223.556 77.3673L227.449 76.4523L225.574 73.5039Z" fill="#FFB573"/>
<path d="M208.524 82.9531C208.707 87.9373 208.891 90.0433 206.639 92.8327C203.251 97.0279 197.088 96.1627 195.42 91.3333C193.918 86.9863 193.871 79.5655 198.527 77.1163C203.114 74.7043 208.341 77.9683 208.524 82.9531Z" fill="#FFB573"/>
<path d="M206.352 92.8234C211.245 90.709 214.463 86.2504 213.105 79.279C211.805 72.6094 207.302 71.9506 205.442 73.3342C203.582 74.7178 198.946 72.6556 196.164 74.9968C191.343 79.0534 195.901 83.4268 198.275 86.0182C199.693 88.933 201.551 94.8982 206.352 92.8234Z" fill="#263238"/>
<path d="M204.32 78.0822C205.972 80.4732 209.138 81.1482 211.394 79.59C213.65 78.0324 214.141 74.8314 212.489 72.4404C210.838 70.0494 207.671 69.3744 205.415 70.9326C203.159 72.4902 202.669 75.6912 204.32 78.0822Z" fill="#07593D"/>
<path d="M205.59 73.8007C204.884 69.7819 208.687 66.6829 213.772 68.1805C218.857 69.6781 216.167 74.1859 215.124 77.7859C214.082 81.3859 216.818 84.8149 217.962 82.0729C219.105 79.3315 217.183 78.4849 217.183 78.4849C217.183 78.4849 222.582 79.8847 217.566 85.9711C212.55 92.0581 208.01 85.3369 209.238 81.3703C210.23 78.1651 206.258 77.5993 205.59 73.8007Z" fill="#263238"/>
<path d="M200.508 75.3197C198.187 74.1089 194.256 73.1297 192.018 76.8935C190.96 78.6731 191.37 81.0869 191.37 81.0869L198.203 81.5417L200.508 75.3197Z" fill="#263238"/>
<path d="M190.566 79.9064C190.563 79.9064 190.56 79.9064 190.557 79.9058C190.474 79.901 190.411 79.8296 190.416 79.7468C190.422 79.6448 190.588 77.231 192.045 75.7166C195.566 72.0578 199.695 75.0926 200.876 76.1102C200.939 76.1642 200.946 76.259 200.892 76.322C200.837 76.385 200.743 76.3916 200.68 76.3376C199.549 75.3638 195.6 72.4556 192.261 75.9248C190.881 77.3582 190.717 79.7414 190.715 79.7654C190.711 79.8446 190.645 79.9064 190.566 79.9064Z" fill="#263238"/>
<path d="M199.111 85.8174C199.104 86.7882 198.669 87.7386 198.118 88.3836C197.289 89.3532 196.338 88.8756 196.121 87.8004C195.924 86.8326 196.119 85.1622 197.167 84.5766C198.199 84 199.119 84.7074 199.111 85.8174Z" fill="#FFB573"/>
<path d="M198.031 131.473C198.031 131.473 198.352 166.359 201.378 185.8C203.822 201.502 208.346 237.813 208.346 237.813H215.199C215.199 237.813 215.869 202.759 214.628 187.228C211.488 147.929 219.59 140.582 213.052 131.473H198.031Z" fill="#263238"/>
<path opacity="0.1" d="M198.031 131.473C198.031 131.473 198.352 166.359 201.378 185.8C203.822 201.502 208.346 237.813 208.346 237.813H215.199C215.199 237.813 215.869 202.759 214.628 187.228C211.488 147.929 219.59 140.582 213.052 131.473H198.031Z" fill="white"/>
<path opacity="0.3" d="M201.633 147.3C204.039 157.83 202.119 174.414 200.805 181.716C199.413 170.628 198.711 156.258 198.363 145.728C199.605 143.712 200.781 143.58 201.633 147.3Z" fill="black"/>
<path d="M207.408 237.949H216.138L216.596 234.887L207.358 234.574L207.408 237.949Z" fill="#07593D"/>
<path d="M209.899 102.023C210.72 100.391 215.134 99.3636 217.547 99.3672L219.353 107.386C219.353 107.386 214.546 114.52 212.547 113.764C210.185 112.871 208.14 105.521 209.899 102.023Z" fill="#07593D"/>
<path opacity="0.4" d="M209.899 102.023C210.72 100.391 215.134 99.3636 217.547 99.3672L219.353 107.386C219.353 107.386 214.546 114.52 212.547 113.764C210.185 112.871 208.14 105.521 209.899 102.023Z" fill="black"/>
<path d="M204.812 235.985C204.833 235.95 204.835 235.905 204.815 235.868C204.792 235.823 204.743 235.798 204.692 235.806C204.44 235.844 202.219 236.197 201.919 236.831C201.861 236.954 201.869 237.083 201.943 237.206C202.065 237.41 202.238 237.526 202.457 237.548C203.185 237.623 204.236 236.613 204.798 236.005C204.803 235.998 204.808 235.992 204.812 235.985ZM202.147 236.908C202.352 236.571 203.501 236.261 204.377 236.099C203.586 236.904 202.889 237.352 202.481 237.31C202.338 237.295 202.229 237.221 202.146 237.083C202.114 237.029 202.11 236.983 202.134 236.932C202.138 236.924 202.142 236.915 202.147 236.908Z" fill="#07593D"/>
<path d="M204.812 235.987C204.816 235.98 204.82 235.972 204.822 235.963C204.836 235.924 204.827 235.879 204.8 235.847C204.762 235.804 203.873 234.778 203.052 234.725C202.801 234.709 202.581 234.783 202.398 234.947C202.152 235.168 202.173 235.36 202.235 235.481C202.494 235.996 204.09 236.176 204.734 236.042C204.767 236.035 204.794 236.015 204.812 235.987ZM202.463 235.232C202.481 235.201 202.511 235.165 202.557 235.124C202.692 235.003 202.85 234.95 203.037 234.962C203.576 234.998 204.188 235.555 204.467 235.839C203.756 235.899 202.603 235.683 202.447 235.374C202.438 235.355 202.415 235.31 202.463 235.232Z" fill="#07593D"/>
<path d="M210.049 233.857L205.453 235.899L203.404 231.636L200.728 226.053L200.414 225.404L205.005 223.359L205.36 224.09L207.955 229.496L210.049 233.857Z" fill="#FFB573"/>
<path opacity="0.2" d="M207.955 229.496L203.404 231.635L200.728 226.053L205.36 224.09L207.955 229.496Z" fill="black"/>
<path d="M192.641 131.473C192.641 131.473 177.957 167.974 181.937 185.162C185.534 200.696 201.44 230.114 201.44 230.114L207.59 227.027C207.59 227.027 197.757 191.515 196.69 183.8C194.615 168.789 207.956 147.6 207.956 131.473H192.641Z" fill="#263238"/>
<path opacity="0.1" d="M192.641 131.473C192.641 131.473 177.957 167.974 181.937 185.162C185.534 200.696 201.44 230.114 201.44 230.114L207.59 227.027C207.59 227.027 197.757 191.515 196.69 183.8C194.615 168.789 207.956 147.6 207.956 131.473H192.641Z" fill="white"/>
<path d="M204.632 235.263L209.197 231.94C209.363 231.819 209.582 231.836 209.723 231.981L212.872 235.215C213.199 235.55 213.134 236.139 212.747 236.412C211.135 237.543 210.3 238.008 208.293 239.469C207.058 240.367 204.596 242.355 202.891 243.597C201.223 244.81 199.867 243.217 200.467 242.548C203.153 239.545 203.719 237.688 204.136 236.007C204.211 235.704 204.389 235.44 204.632 235.263Z" fill="#263238"/>
<path d="M201.043 231.417L208.982 227.785L207.963 224.551L199.462 228.428L201.043 231.417Z" fill="#07593D"/>
<path d="M196.538 101.614C195.88 99.9091 190.144 98.0395 187.267 97.3867L186.003 106.848C186.003 106.848 190.702 113.601 192.765 113.042C195.201 112.383 197.95 105.266 196.538 101.614Z" fill="#07593D"/>
<path opacity="0.4" d="M196.538 101.614C195.88 99.9091 190.144 98.0395 187.267 97.3867L186.003 106.848C186.003 106.848 190.702 113.601 192.765 113.042C195.201 112.383 197.95 105.266 196.538 101.614Z" fill="black"/>
<path d="M190.239 101.139C190.239 101.139 187.845 101.982 192.641 131.472C200.74 131.472 209.112 131.472 213.052 131.472C212.71 123.164 212.7 118.042 216.67 100.993C216.67 100.993 212.394 100.063 208.003 99.8514C204.568 99.6858 201.754 99.576 198.734 99.852C194.754 100.215 190.239 101.139 190.239 101.139Z" fill="#07593D"/>
<path opacity="0.4" d="M190.239 101.139C190.239 101.139 187.845 101.982 192.641 131.472C200.74 131.472 209.112 131.472 213.052 131.472C212.71 123.164 212.7 118.042 216.67 100.993C216.67 100.993 212.394 100.063 208.003 99.8514C204.568 99.6858 201.754 99.576 198.734 99.852C194.754 100.215 190.239 101.139 190.239 101.139Z" fill="black"/>
<path d="M213.358 130.275L214.278 132.102C214.35 132.243 214.182 132.388 213.946 132.388H192.54C192.356 132.388 192.203 132.298 192.192 132.182L192.008 130.355C191.995 130.228 192.155 130.121 192.356 130.121H213.026C213.177 130.122 213.312 130.183 213.358 130.275Z" fill="#07593D"/>
<path opacity="0.3" d="M213.358 130.275L214.278 132.102C214.35 132.243 214.182 132.388 213.946 132.388H192.54C192.356 132.388 192.203 132.298 192.192 132.182L192.008 130.355C191.995 130.228 192.155 130.121 192.356 130.121H213.026C213.177 130.122 213.312 130.183 213.358 130.275Z" fill="white"/>
<path d="M210.582 132.587H211.136C211.246 132.587 211.33 132.53 211.322 132.461L211.063 130.087C211.055 130.017 210.959 129.961 210.848 129.961H210.295C210.184 129.961 210.1 130.018 210.108 130.087L210.368 132.461C210.376 132.53 210.472 132.587 210.582 132.587Z" fill="#263238"/>
<path d="M197.164 132.587H197.718C197.828 132.587 197.912 132.53 197.904 132.461L197.645 130.087C197.637 130.017 197.541 129.961 197.43 129.961H196.877C196.766 129.961 196.682 130.018 196.69 130.087L196.95 132.461C196.957 132.53 197.054 132.587 197.164 132.587Z" fill="#263238"/>
</svg>
