<svg width="16" height="17" viewBox="0 0 16 17" fill="none" xmlns="http://www.w3.org/2000/svg">
<g id="vuesax/linear/user-add">
<g id="user-add">
<path id="Vector" d="M7.99935 8.4987C9.8403 8.4987 11.3327 7.00631 11.3327 5.16536C11.3327 3.32442 9.8403 1.83203 7.99935 1.83203C6.1584 1.83203 4.66602 3.32442 4.66602 5.16536C4.66602 7.00631 6.1584 8.4987 7.99935 8.4987Z" stroke="white" stroke-linecap="round" stroke-linejoin="round"/>
<path id="Vector_2" d="M2.27344 15.1667C2.27344 12.5867 4.8401 10.5 8.0001 10.5C8.6401 10.5 9.26011 10.5867 9.84011 10.7467" stroke="white" stroke-linecap="round" stroke-linejoin="round"/>
<path id="Vector_3" d="M14.6673 12.4987C14.6673 12.712 14.6407 12.9187 14.5873 13.1187C14.5273 13.3854 14.4207 13.6454 14.2807 13.872C13.8207 14.6454 12.974 15.1654 12.0007 15.1654C11.314 15.1654 10.694 14.9053 10.2273 14.4787C10.0273 14.3053 9.85398 14.0987 9.72064 13.872C9.47398 13.472 9.33398 12.9987 9.33398 12.4987C9.33398 11.7787 9.62065 11.1187 10.0873 10.6387C10.574 10.1387 11.254 9.83203 12.0007 9.83203C12.7873 9.83203 13.5007 10.172 13.9807 10.7187C14.4073 11.192 14.6673 11.8187 14.6673 12.4987Z" stroke="white" stroke-miterlimit="10" stroke-linecap="round" stroke-linejoin="round"/>
<g id="Group">
<path id="Vector_4" d="M12.9925 12.4844H11.0059" stroke="white" stroke-miterlimit="10" stroke-linecap="round" stroke-linejoin="round"/>
<path id="Vector_5" d="M12 11.5117V13.505" stroke="white" stroke-miterlimit="10" stroke-linecap="round" stroke-linejoin="round"/>
</g>
</g>
</g>
<path d="M7.99935 8.49998C9.8403 8.49998 11.3327 7.0076 11.3327 5.16665C11.3327 3.3257 9.8403 1.83331 7.99935 1.83331C6.1584 1.83331 4.66602 3.3257 4.66602 5.16665C4.66602 7.0076 6.1584 8.49998 7.99935 8.49998Z" stroke="white" stroke-linecap="round" stroke-linejoin="round"/>
<path d="M2.27344 15.1667C2.27344 12.5867 4.8401 10.5 8.0001 10.5C8.6401 10.5 9.26011 10.5867 9.84011 10.7467" stroke="white" stroke-linecap="round" stroke-linejoin="round"/>
<path d="M14.6673 12.5C14.6673 12.7133 14.6407 12.92 14.5873 13.12C14.5273 13.3866 14.4207 13.6466 14.2807 13.8733C13.8207 14.6466 12.974 15.1666 12.0007 15.1666C11.314 15.1666 10.694 14.9066 10.2273 14.48C10.0273 14.3066 9.85398 14.1 9.72064 13.8733C9.47398 13.4733 9.33398 13 9.33398 12.5C9.33398 11.78 9.62065 11.12 10.0873 10.64C10.574 10.14 11.254 9.83331 12.0007 9.83331C12.7873 9.83331 13.5007 10.1733 13.9807 10.72C14.4073 11.1933 14.6673 11.82 14.6673 12.5Z" stroke="white" stroke-miterlimit="10" stroke-linecap="round" stroke-linejoin="round"/>
<path d="M12.9925 12.4867H11.0059" stroke="white" stroke-miterlimit="10" stroke-linecap="round" stroke-linejoin="round"/>
<path d="M12 11.5134V13.5067" stroke="white" stroke-miterlimit="10" stroke-linecap="round" stroke-linejoin="round"/>
</svg>
